<?xml version="1.0" encoding="UTF-8"?>
<svg version="1.1" xmlns="http://www.w3.org/2000/svg" width="1722" height="495">
<path d="M0 0 C5.83011439 0.00676042 11.66022233 0.00159015 17.49033797 -0.0018822 C28.82732721 -0.00684972 40.16428661 -0.00137929 51.50127213 0.00796811 C60.72838799 0.01529481 69.95549726 0.01826003 79.18261588 0.01809728 C79.84487751 0.01808964 80.50713914 0.01808199 81.1894693 0.01807411 C83.87953005 0.01803319 86.5695908 0.01796755 89.25965156 0.0178683 C114.33344354 0.01696849 139.40722024 0.02681257 164.48100693 0.04229797 C186.65005883 0.05593899 208.8190999 0.06215792 230.98815596 0.06148756 C232.41437055 0.06144714 233.84058515 0.06140678 235.26679974 0.06136648 C235.97197314 0.06134613 236.67714654 0.06132577 237.40368882 0.06130481 C240.95511641 0.06120398 244.50654401 0.0611134 248.0579716 0.06103456 C248.75896524 0.06101785 249.45995889 0.06100113 250.18219477 0.06098391 C268.84300498 0.06061722 287.50381387 0.06517318 306.16462296 0.07136112 C306.82992867 0.0715814 307.49523437 0.07180167 308.18070086 0.07202861 C311.51941842 0.07313734 314.85813598 0.0742591 318.19685353 0.07539741 C327.40033306 0.07838989 336.60381166 0.07947407 345.80729163 0.07992971 C357.03982322 0.08061752 368.27234638 0.08516055 379.5048744 0.09426252 C385.21486795 0.09882301 390.92485084 0.10194773 396.63484633 0.10066831 C417.10563129 0.09713915 437.56662967 0.13539527 458.03065169 0.70899427 C458.76880647 0.72945449 459.50696125 0.74991471 460.26748436 0.77099494 C488.63944406 1.58212441 509.96712688 6.07552713 532.68957198 24.24679029 C533.70857588 25.03376295 533.70857588 25.03376295 534.74816573 25.83663404 C539.54075176 29.6899159 543.02938631 34.34094703 546.68957198 39.24679029 C547.32379073 39.9751106 547.95800948 40.70343091 548.61144698 41.45382154 C551.39003641 45.18820395 553.28734391 49.16454803 555.25207198 53.37179029 C555.84858565 54.64711622 555.84858565 54.64711622 556.4571501 55.94820631 C563.20111284 70.65784384 563.82338829 84.61994366 563.89489424 100.64620435 C563.9045044 102.05752389 563.91451065 103.46884077 563.92487586 104.88015497 C563.95177192 108.7053921 563.97289703 112.53064122 563.99286973 116.35591996 C564.01515864 120.44778306 564.04258615 124.53961245 564.06922591 128.6314491 C564.11968099 136.52786926 564.16473238 144.42431117 564.20747465 152.32077652 C564.24189346 158.67676944 564.278056 165.03275025 564.31524336 171.38872755 C564.57335803 215.68288749 564.79078991 259.97717573 564.81250823 304.27216566 C564.81456469 307.54768593 564.81831443 310.8232007 564.82241499 314.098719 C564.82820274 319.15953964 564.82848029 324.22032947 564.82395422 329.28115118 C564.82293053 331.08524466 564.82344337 332.88933987 564.8257128 334.69343221 C564.84998425 357.76555347 564.84998425 357.76555347 562.68957198 364.24679029 C560.42394698 364.93038404 560.42394698 364.93038404 557.68957198 365.24679029 C555.76769698 364.09444654 555.76769698 364.09444654 553.93957198 362.30929029 C553.24992354 361.65831373 552.5602751 361.00733716 551.84972823 360.33663404 C551.13687666 359.6469856 550.4240251 358.95733716 549.68957198 358.24679029 C548.25899567 356.94745952 546.82134681 355.65587722 545.37707198 354.37179029 C544.62297041 353.69889966 543.86886885 353.02600904 543.09191573 352.33272779 C540.58744178 350.15811139 538.02436346 348.07512771 535.43957198 345.99679029 C531.21674961 342.57017047 527.17189357 339.00821029 523.18957198 335.30929029 C522.6458293 334.80438062 522.10208663 334.29947095 521.5418669 333.77926099 C519.40216156 331.78694552 517.26634623 329.79068387 515.13927901 327.78487623 C513.68225469 326.41228291 512.21729874 325.04812416 510.75207198 323.68429029 C509.91804854 322.89925123 509.0840251 322.11421216 508.22472823 321.30538404 C502.59620326 316.73491769 497.29030771 315.15444373 490.18903697 315.04245985 C489.05832125 315.02271919 487.92760553 315.00297853 486.76262569 314.98263967 C485.51458837 314.96612041 484.26655105 314.94960115 482.98069441 314.93258131 C481.63385463 314.91194652 480.28701849 314.8910721 478.94018579 314.86998022 C475.19882272 314.81341528 471.45739527 314.76455474 467.7158943 314.71809304 C465.29236068 314.68787392 462.86884889 314.65621043 460.44533587 314.62438619 C414.65675297 314.03304894 368.86476373 314.13384344 323.07334984 314.17501324 C310.10509915 314.18635193 297.13684837 314.19069065 284.16859364 314.19455886 C277.46243345 314.19658354 270.75627337 314.19888822 264.05011332 314.20130384 C263.38000494 314.20154485 262.70989656 314.20178587 262.01948186 314.20203418 C246.23722866 314.20778646 230.45497758 314.21674522 214.67272627 314.22628248 C213.64300066 314.22690295 213.64300066 314.22690295 212.59247252 314.22753595 C202.84458076 314.23341333 193.09668909 314.23943352 183.34879744 314.24548829 C171.45416962 314.25287449 159.55954176 314.26017982 147.66491377 314.2672981 C146.97415376 314.26771269 146.28339375 314.26812728 145.57170162 314.26855443 C129.74394943 314.27803658 113.91619745 314.28657709 98.0884434 314.29227674 C97.42026869 314.29251773 96.75209398 314.29275873 96.06367155 314.29300702 C88.72727845 314.29563028 81.3908853 314.29801168 74.05449206 314.30020845 C59.88342157 314.30464324 45.71236183 314.31258422 31.54129636 314.32535326 C21.83525266 314.33386829 12.12921139 314.33868997 2.4231642 314.34077847 C-3.14204064 314.34210334 -8.70723158 314.34497692 -14.27243173 314.35253751 C-34.86333486 314.37927055 -55.45463367 314.34884032 -76.04278428 313.97671628 C-77.87005054 313.94502967 -79.69739736 313.91761883 -81.5247991 313.89506006 C-108.15214297 313.54823508 -130.75906509 306.19928265 -150.31042802 287.24679029 C-150.31042802 286.58679029 -150.31042802 285.92679029 -150.31042802 285.24679029 C-150.97042802 285.24679029 -151.63042802 285.24679029 -152.31042802 285.24679029 C-170.00557882 266.12726203 -176.48299103 242.4302595 -176.43982255 217.11226881 C-176.44157487 215.83434965 -176.44332719 214.55643049 -176.44513261 213.23978651 C-176.44965937 209.75986528 -176.447936 206.27997398 -176.44475353 202.80005229 C-176.44220029 199.1307625 -176.44457611 195.46147508 -176.44613969 191.79218519 C-176.44795486 185.62315897 -176.44557439 179.45414476 -176.44079912 173.28512037 C-176.43537952 166.20299168 -176.43710498 159.1208919 -176.44262552 152.03876394 C-176.44720146 145.91856827 -176.44778488 139.79838117 -176.44518685 133.67818433 C-176.44364568 130.04087223 -176.44336933 126.40357359 -176.44672334 122.76626241 C-176.46706321 96.8602847 -176.46706321 96.8602847 -175.93103349 85.39498365 C-175.90121448 84.68349699 -175.87139547 83.97201034 -175.84067285 83.23896348 C-174.79120802 64.74523573 -166.46058375 46.97488832 -154.31042802 33.24679029 C-153.45399987 32.16524388 -152.59951811 31.0821502 -151.74792802 29.99679029 C-137.84157441 14.30757083 -115.84185104 3.58229063 -95.05915677 2.08454838 C-92.4453002 1.94402758 -89.83145963 1.82751284 -87.21602857 1.72017419 C-85.73711972 1.65656797 -85.73711972 1.65656797 -84.22833393 1.59167678 C-80.97774351 1.45510416 -77.72693238 1.32610646 -74.47594011 1.19947278 C-73.34600267 1.155013 -72.21606523 1.11055321 -71.05188727 1.06474616 C-47.36387262 0.15109394 -23.70286696 -0.03686286 0 0 Z M-68.78696001 68.56737745 C-69.76655313 68.58935536 -70.74614626 68.61133327 -71.75542402 68.63397717 C-82.90340888 69.07048114 -91.27992541 72.74675949 -98.91589677 80.97725904 C-104.9418735 88.69969842 -104.60812114 97.69576616 -104.60095537 107.05343091 C-104.60767259 108.31946653 -104.61438982 109.58550214 -104.62131059 110.88990247 C-104.63887861 114.34235475 -104.6436619 117.79470771 -104.64494216 121.24720037 C-104.64636892 123.40819158 -104.65064828 125.56915794 -104.6559366 127.73014295 C-104.6744025 135.28014183 -104.68261105 142.83007036 -104.68103349 150.38009107 C-104.67983122 157.40116722 -104.70095888 164.4219364 -104.73252082 171.44293487 C-104.75871782 177.48734715 -104.76939944 183.53165931 -104.76812267 189.57612789 C-104.76761428 193.17913074 -104.77322956 196.78186011 -104.79447877 200.38480604 C-104.81753672 204.40346604 -104.8083195 208.42144155 -104.79626787 212.44014966 C-104.80750688 213.62376585 -104.81874589 214.80738203 -104.83032548 216.02686536 C-104.76098062 225.1336441 -102.69790176 231.45564721 -96.31042802 238.24679029 C-93.60651236 240.27162409 -93.60651236 240.27162409 -90.68542802 241.99679029 C-89.7237874 242.58975904 -88.76214677 243.18272779 -87.77136552 243.79366529 C-83.76946245 246.15669377 -80.65817943 246.55196492 -76.07883012 246.80288541 C-75.32609705 246.84505568 -74.57336397 246.88722594 -73.79782081 246.93067409 C-63.87467195 247.43299016 -53.94892564 247.37305207 -44.01599443 247.34926832 C-41.80096878 247.34771904 -39.5859428 247.34660936 -37.37091672 247.34589732 C-31.32684791 247.34264559 -25.28280389 247.33303825 -19.23874438 247.32229006 C-13.37682644 247.31284814 -7.5149058 247.30821268 -1.65298257 247.30333229 C14.02325956 247.28998842 29.69948096 247.26633207 45.37570836 247.24152624 C52.79530446 247.22986355 60.21490224 247.21953131 67.63450051 247.20936495 C93.05151007 247.17452059 118.46851524 247.13759849 143.88551009 247.09320676 C145.47774333 247.09043091 147.06997657 247.08765511 148.66220981 247.08487935 C150.25814954 247.0820951 151.85408928 247.07931058 153.45002902 247.07652581 C156.65145869 247.07093972 159.85288838 247.06535776 163.05431807 247.05977857 C164.24495048 247.05770039 164.24495048 247.05770039 165.45963608 247.05558023 C191.23157718 247.01068063 217.00351327 246.97811711 242.77548069 246.95293368 C270.05085672 246.92623661 297.32619656 246.88874279 324.60154021 246.83875906 C327.59444607 246.83331415 330.58735201 246.82791258 333.58025801 246.82254255 C334.31714621 246.82121517 335.0540344 246.81988778 335.81325254 246.81852018 C347.66870094 246.79741492 359.52413929 246.78610515 371.37960304 246.77829025 C383.28664047 246.77018949 395.1936205 246.75103004 407.10062224 246.72063783 C413.55032575 246.70461677 419.99994231 246.6934496 426.44966757 246.69524038 C432.35238976 246.69676285 438.25491736 246.68454686 444.15759265 246.66134205 C446.29383064 246.65537 448.43008993 246.65445164 450.56633127 246.65907344 C453.4692301 246.66461141 456.37149557 246.65175534 459.27433455 246.63434446 C460.10415683 246.64033531 460.93397911 246.64632615 461.78894752 246.65249854 C468.74509201 246.57756908 474.85898415 245.13384884 480.68957198 241.24679029 C480.68957198 240.58679029 480.68957198 239.92679029 480.68957198 239.24679029 C481.28769698 238.97866529 481.88582198 238.71054029 482.50207198 238.43429029 C484.68805051 237.24761623 486.10289792 236.15079916 487.68957198 234.24679029 C487.68957198 233.58679029 487.68957198 232.92679029 487.68957198 232.24679029 C488.34957198 232.24679029 489.00957198 232.24679029 489.68957198 232.24679029 C495.4316332 220.76266784 491.85403876 199.83388007 491.85754073 187.41085279 C491.85896758 186.07652617 491.86056425 184.74219973 491.86232626 183.40787351 C491.87152312 176.4337646 491.87566737 169.4596746 491.87487471 162.48555982 C491.87427199 156.0148792 491.88487642 149.5442814 491.90061837 143.07362175 C491.9137255 137.48426131 491.91905744 131.89492792 491.9184193 126.30555224 C491.91816571 122.98159553 491.92187748 119.65772924 491.93159735 116.33378446 C491.94141755 112.63235299 491.93851218 108.93113551 491.9324919 105.22970045 C491.94092116 103.60240003 491.94092116 103.60240003 491.94952071 101.94222486 C491.9157635 93.75563721 491.6167252 85.5553728 486.36925948 78.87960279 C478.54480221 71.27350247 469.09358528 69.02211505 458.58019888 68.62972677 C457.70787562 68.59210562 456.83555236 68.55448448 455.93679506 68.5157233 C446.10572336 68.12662469 436.27676553 68.10762919 426.43954146 68.11980665 C424.3742851 68.11865132 422.30902895 68.11706105 420.24377322 68.1150794 C414.62696206 68.11094236 409.0101681 68.11295109 403.39335692 68.11606562 C397.31271691 68.11834272 391.2320797 68.11482862 385.15144026 68.1120857 C373.94631184 68.1079087 362.74118886 68.1082528 351.53606056 68.11099717 C341.17778755 68.11352136 330.81951653 68.11416543 320.46124327 68.11297452 C319.77183157 68.11289814 319.08241987 68.11282175 318.37211691 68.11274305 C315.57289484 68.11243167 312.77367277 68.11211326 309.97445071 68.11178329 C283.75520463 68.10872951 257.535962 68.11148908 231.31671646 68.11688019 C208.0786951 68.12162202 184.84067922 68.12120322 161.60265791 68.1164192 C135.43776331 68.1110505 109.27287175 68.10894932 83.10797668 68.11203146 C80.31224954 68.11235213 77.51652241 68.11266497 74.72079527 68.11297452 C73.6883822 68.11309314 73.6883822 68.11309314 72.63511229 68.11321415 C62.29354254 68.11434615 51.951975 68.11303156 41.61040556 68.11049497 C29.83336132 68.10762052 18.05632229 68.10847755 6.27927844 68.11377572 C0.28112547 68.11638602 -5.71701644 68.11746365 -11.71516931 68.11412656 C-40.25428768 68.05008344 -40.25428768 68.05008344 -68.78696001 68.56737745 Z " fill="#000000" transform="translate(615.3104280233383,126.75320971012115)"/>
<path d="M0 0 C1.27149399 -0.00315216 2.54298798 -0.00630432 3.85301208 -0.009552 C5.24714187 -0.00776197 6.64127134 -0.00571096 8.03540039 -0.00341797 C9.46025102 -0.00409139 10.88510154 -0.00506174 12.30995178 -0.00631714 C15.29844251 -0.00779278 18.28690337 -0.00564416 21.27539062 -0.00097656 C25.1066498 0.00471549 28.93783884 0.00144421 32.76909542 -0.00454903 C35.71245349 -0.00816264 38.65579495 -0.00701227 41.59915352 -0.00442123 C43.01175507 -0.00375392 44.42435814 -0.00457359 45.83695793 -0.00690079 C47.81187791 -0.0094398 49.78680318 -0.00488391 51.76171875 0 C53.44810707 0.00119339 53.44810707 0.00119339 55.16856384 0.00241089 C57.94555664 0.12939453 57.94555664 0.12939453 60.94555664 1.12939453 C60.94555664 55.57939453 60.94555664 110.02939453 60.94555664 166.12939453 C65.19202548 165.55533558 65.19202548 165.55533558 66.98852539 161.91845703 C67.71253151 160.5351933 68.42683144 159.14682025 69.13305664 157.75439453 C78.52394325 140.2053339 91.15884989 128.48707528 110.13305664 122.19189453 C123.95039784 118.90107806 140.48663498 120.06023238 153.01977539 126.91064453 C156.90357298 129.36854483 160.45028429 132.15012021 163.94555664 135.12939453 C164.6274707 135.70302734 165.30938477 136.27666016 166.01196289 136.86767578 C182.40545819 151.8495981 188.01751884 176.80839465 189.04276752 198.15324688 C189.47576889 210.11136471 189.41309876 222.08629814 189.41873598 234.05040693 C189.42447489 238.99504317 189.44780325 243.93959756 189.46932983 248.88418579 C189.50763446 258.24130624 189.53198379 267.5984027 189.5504545 276.95558131 C189.58395061 293.67859792 189.64223575 310.40153992 189.7044462 327.12447131 C189.72565328 332.9703778 189.74096124 338.81626109 189.75140655 344.66219628 C189.78453567 370.12141093 189.78453567 370.12141093 190.72201538 395.56045532 C191.40278075 408.10490076 191.08802009 420.62350002 189.94555664 433.12939453 C186.60388191 434.24328611 184.09924115 434.25637364 180.578125 434.25878906 C178.60609352 434.2635173 178.60609352 434.2635173 176.59422302 434.26834106 C175.15794847 434.26655136 173.72167423 434.26450043 172.28540039 434.26220703 C170.81474288 434.26288057 169.34408548 434.26385101 167.87342834 434.2651062 C164.79256123 434.26658036 161.71172312 434.26443735 158.63085938 434.25976562 C154.67734187 434.25406349 150.72389218 434.25735218 146.77037716 434.26333809 C143.73441555 434.26694703 140.6984701 434.26580367 137.66250801 434.2632103 C136.20442255 434.26254221 134.74633564 434.26336534 133.28825188 434.26568985 C131.25336611 434.26822231 129.21847522 434.26367972 127.18359375 434.25878906 C125.44510414 434.25759567 125.44510414 434.25759567 123.67149353 434.25637817 C120.94555664 434.12939453 120.94555664 434.12939453 118.94555664 433.12939453 C118.94316829 432.00847853 118.94077993 430.88756252 118.93831921 429.73267937 C118.87944975 402.42220838 118.80352093 375.11182509 118.70984173 347.80145073 C118.66493105 334.59420445 118.62550545 321.38698485 118.59912109 308.1796875 C118.57610276 296.66436885 118.54266185 285.14913497 118.49685508 273.6338836 C118.47297468 267.54014918 118.45421193 261.44649845 118.44794273 255.35271835 C118.44186846 249.60878765 118.42178414 243.86507092 118.39128113 238.12121964 C118.38253836 236.02111551 118.37877046 233.92098338 118.38054848 231.82086182 C118.91381 209.11496242 118.91381 209.11496242 109.30883789 189.38720703 C103.09886313 183.7564707 97.6140904 182.59323922 89.29711914 182.76220703 C80.70762656 183.70324701 75.08613836 188.20633829 69.70336914 194.71142578 C67.07088771 198.33255024 64.9215611 202.11802068 62.94555664 206.12939453 C62.61555664 206.78939453 62.28555664 207.44939453 61.94555664 208.12939453 C61.83949938 211.06215347 61.79506655 213.97169643 61.79406738 216.90504456 C61.78983497 217.82484712 61.78560256 218.74464969 61.78124189 219.69232506 C61.76816244 222.79317595 61.76217894 225.89400109 61.75610352 228.99487305 C61.74816545 231.21026773 61.73977784 233.42566084 61.73097229 235.64105225 C61.71288495 240.42048756 61.69788032 245.19991935 61.68519592 249.97937202 C61.66502456 257.52833914 61.63736635 265.07726718 61.60852051 272.62620544 C61.56880832 283.20269943 61.53184772 293.77919939 61.49780273 304.35571289 C61.49563993 305.0272079 61.49347713 305.69870291 61.49124879 306.39054625 C61.47372466 311.83996316 61.45637926 317.28938063 61.43904591 322.73879814 C61.42388322 327.50368145 61.40865072 332.26856453 61.39331055 337.03344727 C61.39115168 337.70443042 61.38899281 338.37541358 61.38676852 339.06672955 C61.35070069 350.23924358 61.3107105 361.41174103 61.26800776 372.58423179 C61.23957964 380.09716718 61.21601231 387.61009782 61.19608307 395.12306035 C61.18273989 399.78623648 61.16532534 404.44939079 61.14677238 409.11254883 C61.13898615 411.28423959 61.13292991 413.4559373 61.12867928 415.62763786 C61.12267497 418.57870554 61.11064799 421.52968722 61.0970459 424.48072815 C61.09674991 425.35191444 61.09645392 426.22310072 61.09614897 427.12068659 C61.05964961 433.01530156 61.05964961 433.01530156 59.94555664 434.12939453 C57.86480255 434.22883425 55.78063816 434.25739049 53.69750977 434.25878906 C53.0454808 434.26054138 52.39345184 434.2622937 51.72166443 434.26409912 C49.55668511 434.26851657 47.39178685 434.26558005 45.22680664 434.26220703 C43.72847477 434.2628801 42.23014301 434.26385015 40.73181152 434.2651062 C37.58771732 434.26658303 34.44365147 434.26442911 31.29956055 434.25976562 C27.26069125 434.25406834 23.2218884 434.25734742 19.18302155 434.26333809 C16.08790584 434.26694412 12.99280599 434.26580493 9.89768982 434.2632103 C8.40807589 434.26254114 6.91846054 434.26336905 5.42884827 434.26568985 C3.35039429 434.26821706 1.27204933 434.26437486 -0.80639648 434.25878906 C-2.58391296 434.25759567 -2.58391296 434.25759567 -4.39733887 434.25637817 C-7.05444336 434.12939453 -7.05444336 434.12939453 -8.05444336 433.12939453 C-8.15857082 430.87207003 -8.19031365 428.61141396 -8.19590187 426.35169601 C-8.19904369 425.63110459 -8.2021855 424.91051316 -8.20542252 424.16808563 C-8.21484102 421.72278594 -8.21706539 419.27753038 -8.21939087 416.83221436 C-8.2246675 415.07362369 -8.23037951 413.31503428 -8.23649251 411.55644631 C-8.252083 406.69989089 -8.2613894 401.84334011 -8.26971102 396.98676753 C-8.27973824 391.7582737 -8.29547924 386.52979674 -8.3105011 381.30131531 C-8.33901695 371.0480764 -8.36210418 360.79483201 -8.38327886 350.54157558 C-8.40058013 342.21021 -8.41981251 333.87885098 -8.44044113 325.54749298 C-8.44336973 324.36399284 -8.44629832 323.18049269 -8.44931566 321.96112891 C-8.45527247 319.55720008 -8.46123369 317.15327127 -8.46719925 314.74934247 C-8.52298484 292.17641964 -8.57262969 269.60348645 -8.62020425 247.03054503 C-8.66119651 227.64893077 -8.70745527 208.26733493 -8.75756836 188.88574219 C-8.81569849 166.40258249 -8.87055018 143.91941874 -8.92016923 121.43623853 C-8.92546751 119.03967872 -8.93077012 116.64311893 -8.93607712 114.24655914 C-8.93868695 113.06728261 -8.94129679 111.88800607 -8.94398571 110.67299388 C-8.96263151 102.35070351 -8.983635 94.02842098 -9.00554276 85.70613861 C-9.03217544 75.56506116 -9.05521976 65.42398321 -9.07362773 55.28288737 C-9.08311667 50.10566936 -9.09424145 44.92846841 -9.10973167 39.75126457 C-9.12385603 35.01519475 -9.13333894 30.27913956 -9.13906173 25.54305235 C-9.14195839 23.82631164 -9.14657486 22.10957284 -9.1530505 20.39284191 C-9.16157662 18.06536043 -9.16391437 15.73795268 -9.16466713 13.41045761 C-9.16754254 12.11577364 -9.17041795 10.82108966 -9.17338049 9.48717284 C-9.06901693 6.54082879 -8.88348538 3.95599191 -8.05444336 1.12939453 C-5.29935601 -0.24814914 -3.08336151 0.00218352 0 0 Z " fill="#000000" transform="translate(231.054443359375,2.87060546875)"/>
<path d="M0 0 C1.25490234 0.58201172 1.25490234 0.58201172 2.53515625 1.17578125 C22.66151241 11.22069585 36.18002597 31.37112574 43.22900391 52.13330078 C47.17519599 64.29998069 48.31170387 76.61460468 48.23046875 89.36328125 C48.23001053 90.56188278 48.22955231 91.76048431 48.2290802 92.9954071 C48.22608755 95.49686693 48.21829257 97.99832539 48.20581055 100.49975586 C48.1873285 104.34821055 48.18530282 108.19642703 48.18554688 112.04492188 C48.180639 114.4843771 48.1748139 116.92383069 48.16796875 119.36328125 C48.16685593 120.51725906 48.1657431 121.67123688 48.16459656 122.86018372 C48.15821671 123.91606186 48.15183685 124.97194 48.14526367 126.05981445 C48.14145187 126.99243607 48.13764008 127.92505768 48.13371277 128.88594055 C48 131 48 131 47 132 C44.95531026 132.10465469 42.90697446 132.13856044 40.85961914 132.14526367 C39.54478043 132.15164352 38.22994171 132.15802338 36.8752594 132.16459656 C35.42855872 132.16612511 33.98185755 132.16723914 32.53515625 132.16796875 C31.06164008 132.1711796 29.58812424 132.17454354 28.11460876 132.17805481 C25.0217922 132.18405252 21.92900361 132.18589406 18.83618164 132.18530273 C14.86686232 132.18520108 10.89772178 132.19885321 6.92844486 132.21607494 C3.88389762 132.22717637 0.83939383 132.22922252 -2.20517159 132.22869301 C-3.66884541 132.22987594 -5.13252025 132.23431516 -6.59617424 132.24202538 C-8.64083442 132.2517872 -10.6855467 132.24769288 -12.73022461 132.24291992 C-13.89525009 132.24434494 -15.06027557 132.24576996 -16.26060486 132.24723816 C-19 132 -19 132 -21 130 C-21.25828552 127.86611938 -21.25828552 127.86611938 -21.27124023 125.18994141 C-21.28652016 123.6866478 -21.28652016 123.6866478 -21.30210876 122.15298462 C-21.30424881 121.06351532 -21.30638885 119.97404602 -21.30859375 118.8515625 C-21.33378103 116.54296652 -21.3591786 114.23437283 -21.38476562 111.92578125 C-21.41335816 108.28793076 -21.43736929 104.65012069 -21.45629883 101.01220703 C-21.47815046 97.50009813 -21.5176346 93.98849335 -21.55859375 90.4765625 C-21.55876747 88.87272202 -21.55876747 88.87272202 -21.5589447 87.23648071 C-21.70261464 76.10246756 -23.4684921 65.58557898 -31 57 C-36.45741461 51.7459673 -41.80208767 49.13678717 -49.375 48.9375 C-56.71445596 49.3044728 -63.41973871 51.61181281 -68.8203125 56.72265625 C-76.52009902 66.14425433 -77.5899044 76.79582684 -77.51757812 88.55249023 C-77.52301101 89.98290719 -77.53014017 91.41331854 -77.53881836 92.84371948 C-77.55691804 96.69719864 -77.5500397 100.55024523 -77.53730202 104.40373111 C-77.52710249 108.45667013 -77.53658702 112.50957462 -77.54284668 116.56251526 C-77.55010384 123.36702044 -77.54058725 130.17135141 -77.52148438 136.97583008 C-77.49972804 144.81544484 -77.50676565 152.6546432 -77.52879 160.49424785 C-77.54700984 167.25302364 -77.54947006 174.0116749 -77.53903532 180.77046734 C-77.53283525 184.79493303 -77.53186746 188.81920378 -77.54518127 192.84365654 C-77.55683536 196.63027437 -77.54854239 200.41636162 -77.52560425 204.20292282 C-77.51789204 206.23538761 -77.52959155 208.2678979 -77.54211426 210.30033875 C-77.45076713 220.32226033 -75.87231832 230.43120126 -69.4921875 238.53515625 C-63.10086487 244.80936041 -56.52145614 246.3125 -47.765625 246.3125 C-39.89924881 246.14577526 -35.62427686 243.95250582 -30.25 238.375 C-22.54919986 228.95118979 -21.87008357 218.30542121 -21.75390625 206.6171875 C-21.72098999 204.37629785 -21.68777799 202.13541253 -21.65429688 199.89453125 C-21.60676936 196.37453975 -21.56227317 192.85456852 -21.52319336 189.33447266 C-21.48354526 185.92853512 -21.43201047 182.52293805 -21.37890625 179.1171875 C-21.3704921 178.062966 -21.36207794 177.00874451 -21.35340881 175.9225769 C-21.33676682 174.94120758 -21.32012482 173.95983826 -21.30297852 172.94873047 C-21.28751732 171.65683304 -21.28751732 171.65683304 -21.27174377 170.33883667 C-20.97993376 167.82729441 -20.2611757 166.17343168 -19 164 C-10.4119428 163.97687365 -1.82389851 163.95908342 6.76418209 163.94818783 C10.751572 163.94295964 14.73894067 163.93586316 18.72631836 163.92456055 C22.57125114 163.91372939 26.41616345 163.90772268 30.26111031 163.90512276 C31.73118983 163.90326892 33.20126818 163.89964909 34.67133904 163.89426994 C36.72354467 163.88705645 38.77566467 163.88600919 40.82788086 163.88647461 C41.99814316 163.884254 43.16840546 163.88203339 44.37413025 163.87974548 C47 164 47 164 48 165 C48.10942194 166.73061192 48.14908689 168.46568117 48.16113281 170.19970703 C48.17074036 171.31241974 48.1803479 172.42513245 48.19024658 173.57156372 C48.1966214 175.39625687 48.1966214 175.39625687 48.203125 177.2578125 C48.20882507 178.50819305 48.21452515 179.75857361 48.22039795 181.04684448 C48.22987428 183.70851271 48.23675533 186.37006757 48.24023438 189.03173828 C48.24458332 191.73565434 48.25832647 194.43924487 48.28125 197.14306641 C48.50730815 225.86304817 48.50730815 225.86304817 45 238 C44.56494141 239.56572754 44.56494141 239.56572754 44.12109375 241.16308594 C40.35141843 254.09744291 33.90695101 265.93745654 25 276 C24.2265625 276.969375 23.453125 277.93875 22.65625 278.9375 C8.36296397 296.08944324 -14.48617394 304.39714621 -36 307 C-41.10773796 307.29143869 -46.19742132 307.32508012 -51.3125 307.3125 C-52.61123047 307.32861328 -53.90996094 307.34472656 -55.24804688 307.36132812 C-79.87382872 307.37357367 -103.76743668 298.70288365 -121.703125 281.51953125 C-142.1747645 259.06339609 -148.15633181 232.15869652 -148.14526367 202.41308594 C-148.14862228 201.09933487 -148.1519809 199.7855838 -148.15544128 198.43202209 C-148.16419935 194.85946146 -148.16661591 191.28692485 -148.16725707 187.71435452 C-148.16797225 185.47339828 -148.17011535 183.23244798 -148.17275429 180.99149323 C-148.18198063 173.14813353 -148.18609259 165.30479072 -148.18530273 157.46142578 C-148.18470269 150.19115514 -148.19524715 142.92095886 -148.2110464 135.65070701 C-148.22419185 129.37429071 -148.22948371 123.09789852 -148.22884732 116.82146859 C-148.22859439 113.08814382 -148.23133114 109.35488526 -148.24202538 105.6215744 C-148.25182529 102.10513721 -148.2517057 98.58882793 -148.24450874 95.07238579 C-148.24299247 93.19435366 -148.25122568 91.3163212 -148.25994873 89.43830872 C-148.15842157 61.42205256 -140.79320812 34.49968789 -121 14 C-89.52454694 -16.35731974 -37.87365742 -18.78636582 0 0 Z " fill="#000000" transform="translate(151,135)"/>
<path d="M0 0 C0.33 22.77 0.66 45.54 1 69 C19.15 69.33 37.3 69.66 56 70 C56 89.47 56 108.94 56 129 C51.029375 129.165 46.05875 129.33 40.9375 129.5 C39.42406006 129.55220703 37.91062012 129.60441406 36.35131836 129.65820312 C27.86771861 129.92679627 19.39645369 130.02895903 10.90844727 130.01367188 C9.32701305 130.01219147 9.32701305 130.01219147 7.71363068 130.01068115 C5.1424175 130.00813075 2.57121028 130.00455127 0 130 C0.10731267 150.85366106 0.2200872 171.70728623 0.33933926 192.56088257 C0.39458481 202.2438641 0.44805239 211.92684931 0.49731445 221.60986328 C0.54026266 230.05092652 0.58656713 238.49196358 0.63687855 246.93298626 C0.66339399 251.40118765 0.68824454 255.86938415 0.70907402 260.33761597 C0.72874809 264.54661068 0.75292308 268.75555597 0.78049088 272.96450615 C0.78980456 274.50596653 0.79749988 276.04743772 0.80341911 277.58891487 C0.62547078 295.50484226 0.62547078 295.50484226 8.72265625 311.05078125 C16.61036952 318.61456379 25.55848442 320.49624791 36.2121582 320.34545898 C41.3792205 320.16249375 46.01714382 319.30697867 51 318 C52.6662327 317.96196901 54.33396933 317.95396116 56 318 C56.02505615 318.85529297 56.0501123 319.71058594 56.07592773 320.59179688 C56.19376182 324.56128265 56.31440322 328.53067448 56.4375 332.5 C56.45956512 333.21184448 56.48163025 333.92368896 56.50436401 334.65710449 C56.75154817 342.52819742 57.00793326 350.39330175 57.5625 358.25 C57.98037237 364.17856431 58.1132954 370.05828578 58 376 C52.51195227 378.64430833 47.45533751 379.80989222 41.4375 380.625 C40.55707031 380.74979736 39.67664062 380.87459473 38.76953125 381.00317383 C31.52340971 381.99806315 24.31198289 382.70933733 17 383 C15.55173828 383.061875 15.55173828 383.061875 14.07421875 383.125 C-9.6939043 383.63960077 -31.28883656 377.48675825 -49 361 C-67.34911131 342.11604913 -69.28796091 313.60206651 -69.31884766 288.82202148 C-69.32817519 287.0756892 -69.3383479 285.32936125 -69.34928894 283.58303833 C-69.37628515 278.9003192 -69.39164675 274.21762961 -69.40471697 269.5348537 C-69.42048243 264.6194797 -69.4472289 259.70416491 -69.4727478 254.78883362 C-69.51930042 245.50689725 -69.55615738 236.22494945 -69.58942068 226.94295698 C-69.62780954 216.36473439 -69.67717505 205.78657161 -69.72740483 195.20839965 C-69.83037437 173.47231075 -69.9197471 151.73618388 -70 130 C-70.70084717 130.00523682 -71.40169434 130.01047363 -72.1237793 130.01586914 C-75.31167701 130.03670852 -78.49956036 130.04968232 -81.6875 130.0625 C-82.79029297 130.07087891 -83.89308594 130.07925781 -85.02929688 130.08789062 C-86.09599609 130.09111328 -87.16269531 130.09433594 -88.26171875 130.09765625 C-89.24100342 130.10289307 -90.22028809 130.10812988 -91.22924805 130.11352539 C-94 130 -94 130 -99 129 C-99 109.53 -99 90.06 -99 70 C-96.42505504 68.71252752 -94.54028245 68.87364129 -91.66015625 68.859375 C-90.0659082 68.83037109 -90.0659082 68.83037109 -88.43945312 68.80078125 C-86.19223743 68.76698853 -83.94473387 68.74870253 -81.69726562 68.74609375 C-80.63314453 68.72160156 -79.56902344 68.69710937 -78.47265625 68.671875 C-77.49562744 68.6625293 -76.51859863 68.65318359 -75.51196289 68.64355469 C-72.81942031 68.23285099 -72.81942031 68.23285099 -71.36329651 65.82029724 C-69.83781988 62.66449255 -69.64141213 60.71660368 -69.67529297 57.23168945 C-69.67874725 56.09733963 -69.68220154 54.96298981 -69.6857605 53.79426575 C-69.70438141 52.57954086 -69.72300232 51.36481598 -69.7421875 50.11328125 C-69.74880402 48.85992477 -69.75542053 47.6065683 -69.76223755 46.31523132 C-69.78166588 42.99328363 -69.81353292 39.67196348 -69.85229492 36.35021973 C-69.9045611 31.65947113 -69.93647019 26.96857079 -69.96633911 22.27763367 C-69.98336716 19.78133633 -70.00655 17.28507223 -70.03634644 14.78889465 C-70.04610504 13.66400131 -70.05586365 12.53910797 -70.06591797 11.38012695 C-70.07718719 10.38705032 -70.08845642 9.39397369 -70.10006714 8.37080383 C-70 6 -70 6 -69 4 C-66.97532654 3.6076355 -66.97532654 3.6076355 -64.27514648 3.40576172 C-62.7610746 3.2858638 -62.7610746 3.2858638 -61.21641541 3.1635437 C-60.11245926 3.08637115 -59.00850311 3.00919861 -57.87109375 2.9296875 C-56.73406509 2.84373322 -55.59703644 2.75777893 -54.42555237 2.66921997 C-52.00384669 2.488288 -49.58178458 2.31207614 -47.15942383 2.14013672 C-43.50440773 1.87976627 -39.85089481 1.60330338 -36.19726562 1.32421875 C-33.83861364 1.15006416 -31.47989129 0.97685949 -29.12109375 0.8046875 C-28.04750107 0.72346649 -26.97390839 0.64224548 -25.86778259 0.55856323 C-17.18153918 -0.04668846 -8.77253385 0 0 0 Z " fill="#000000" transform="translate(1295,60)"/>
<path d="M0 0 C0.33 22.77 0.66 45.54 1 69 C19.15 69.33 37.3 69.66 56 70 C56 89.47 56 108.94 56 129 C28.775 129.495 28.775 129.495 1 130 C0.95478118 150.52377813 0.91796898 171.04751566 0.89637566 191.57133102 C0.88608118 201.10177143 0.87205594 210.63217859 0.84912109 220.16259766 C0.82913109 228.47329807 0.81627028 236.7839744 0.81182301 245.09469819 C0.80922511 249.49152501 0.80315731 253.88828294 0.78853989 258.28508759 C0.77486717 262.43170991 0.77079675 266.57823559 0.77378464 270.72487831 C0.77323878 272.23887217 0.76931945 273.75286958 0.76158905 275.2668438 C0.64241118 294.33726206 0.64241118 294.33726206 9 311 C16.19600743 318.16570845 24.04328359 320.2504787 34 320.3125 C39.92431601 320.26178868 45.27646868 319.50125412 51 318 C52.6662327 317.96196901 54.33396933 317.95396116 56 318 C56.2882098 324.49196044 56.57261696 330.98407982 56.85449219 337.47631836 C56.95064008 339.680783 57.04762988 341.8852111 57.14550781 344.08959961 C57.28676986 347.27448226 57.4249135 350.45948794 57.5625 353.64453125 C57.60624756 354.61582474 57.64999512 355.58711823 57.69506836 356.58784485 C57.81448485 359.39165446 57.91439381 362.19496047 58 365 C58.03206543 366.01734222 58.06413086 367.03468445 58.09716797 368.08285522 C58.11537598 369.07346954 58.13358398 370.06408386 58.15234375 371.0847168 C58.17159912 371.97998581 58.19085449 372.87525482 58.21069336 373.7976532 C58 376 58 376 56 378 C53.66845703 378.57836914 53.66845703 378.57836914 50.7578125 379.03515625 C49.69046875 379.20466797 48.623125 379.37417969 47.5234375 379.54882812 C46.40195313 379.71833984 45.28046875 379.88785156 44.125 380.0625 C43.0421875 380.23587891 41.959375 380.40925781 40.84375 380.58789062 C12.61787542 384.98344747 -16.14825229 384.73337535 -40.578125 368.26171875 C-59.01060579 354.60698221 -64.98813969 333.466074 -68.5155859 311.83888149 C-69.00283642 307.97752193 -69.12300024 304.29134693 -69.12025452 300.40065002 C-69.12110894 299.66779673 -69.12196337 298.93494344 -69.12284368 298.17988247 C-69.12448144 295.74172238 -69.11900521 293.30363219 -69.11352539 290.86547852 C-69.11324312 289.11077374 -69.11340202 287.35606884 -69.1139679 285.60136414 C-69.11425433 280.84985368 -69.10838242 276.09836856 -69.10139394 271.34686399 C-69.09513484 266.3767467 -69.09455458 261.4066288 -69.09336853 256.43650818 C-69.09026275 247.03025479 -69.08205952 237.62401306 -69.07201904 228.21776479 C-69.06083451 217.50680421 -69.05534155 206.79584306 -69.05032361 196.08487809 C-69.03987628 174.05657872 -69.02208955 152.0282905 -69 130 C-78.57 129.67 -88.14 129.34 -98 129 C-98 109.53 -98 90.06 -98 70 C-88.43 70 -78.86 70 -69 70 C-69 48.22 -69 26.44 -69 4 C-56.0990625 3.01 -56.0990625 3.01 -42.9375 2 C-40.25488037 1.79117188 -37.57226074 1.58234375 -34.80834961 1.3671875 C-32.63138131 1.20267909 -30.45438126 1.03858999 -28.27734375 0.875 C-26.64351746 0.74544922 -26.64351746 0.74544922 -24.97668457 0.61328125 C-16.57978503 -0.00974144 -8.48417319 0 0 0 Z " fill="#000000" transform="translate(1659,60)"/>
<path d="M0 0 C22.77 0 45.54 0 69 0 C69 100.98 69 201.96 69 306 C66.25084101 307.37457949 64.0383861 307.13479575 60.96142578 307.14526367 C59.69315948 307.15164352 58.42489319 307.15802338 57.11819458 307.16459656 C55.72723427 307.16612533 54.33627346 307.16723924 52.9453125 307.16796875 C51.52285732 307.17118127 50.10040248 307.17454534 48.677948 307.17805481 C45.69365676 307.1840478 42.70939449 307.18589457 39.72509766 307.18530273 C35.9028526 307.18520118 32.08079359 307.19884539 28.25859261 307.21607494 C25.31947987 307.22720006 22.380412 307.22922177 19.44128036 307.22869301 C18.03228998 307.22987266 16.62329843 307.23429363 15.21432877 307.24202538 C13.2420313 307.2518336 11.26967939 307.24768081 9.29736328 307.24291992 C8.17532501 307.24434494 7.05328674 307.24576996 5.89724731 307.24723816 C3.00691954 307.00059048 1.50361902 306.35516096 -1 305 C-1.02288255 267.01129921 -1.04050647 229.02259945 -1.05106533 191.03389316 C-1.05231606 186.5502647 -1.05361038 182.06663625 -1.05493164 177.58300781 C-1.05519395 176.69038786 -1.05545626 175.7977679 -1.05572652 174.87809886 C-1.06007932 160.41976373 -1.06796474 145.96143256 -1.0771528 131.50309978 C-1.08650015 116.67052829 -1.09205791 101.83795888 -1.09408849 87.00538456 C-1.09546147 77.85090548 -1.0997999 68.69643762 -1.10791647 59.54196198 C-1.11319725 53.2667203 -1.11480125 46.99148443 -1.11350138 40.71624069 C-1.11286009 37.0943131 -1.11385195 33.47240514 -1.11920547 29.85048103 C-1.124966 25.92455452 -1.12299034 21.99865367 -1.12025452 18.07272339 C-1.12316736 16.9268069 -1.1260802 15.78089041 -1.12908131 14.60024917 C-1.12709026 13.5467676 -1.12509921 12.49328604 -1.12304783 11.40788078 C-1.12342755 10.50186808 -1.12380727 9.59585537 -1.1241985 8.66238773 C-1 6 -1 6 0 0 Z " fill="#000000" transform="translate(1473,130)"/>
<path d="M0 0 C2.8125 2.4375 2.8125 2.4375 5 5 C5.86625 5.9075 6.7325 6.815 7.625 7.75 C12.79339065 14.12344013 13.53272121 22.00671624 13.4375 29.9375 C13.43065186 30.81559326 13.42380371 31.69368652 13.41674805 32.59838867 C13.25604479 39.07767907 12.38983286 44.3726537 9 50 C8.49146484 50.95712891 8.49146484 50.95712891 7.97265625 51.93359375 C3.65485857 59.07870379 -4.66168276 63.16252233 -12.47265625 65.46875 C-27.06136506 68.53531012 -40.92473475 67.05400685 -53.98828125 59.98828125 C-61.67065756 54.9165179 -64.86775233 47.45537512 -66.6875 38.6875 C-67.70565085 26.67331995 -67.18120865 15.03864734 -59.79296875 4.96875 C-45.37265684 -10.86531798 -17.21089471 -10.80756728 0 0 Z " fill="#000000" transform="translate(1534,29)"/>
</svg>
