<?xml version="1.0" encoding="UTF-8"?>
<svg version="1.1" xmlns="http://www.w3.org/2000/svg" width="745" height="370">
<path d="M0 0 C5.83011439 0.00676042 11.66022233 0.00159015 17.49033797 -0.0018822 C28.82732721 -0.00684972 40.16428661 -0.00137929 51.50127213 0.00796811 C60.72838799 0.01529481 69.95549726 0.01826003 79.18261588 0.01809728 C79.84487751 0.01808964 80.50713914 0.01808199 81.1894693 0.01807411 C83.87953005 0.01803319 86.5695908 0.01796755 89.25965156 0.0178683 C114.33344354 0.01696849 139.40722024 0.02681257 164.48100693 0.04229797 C186.65005883 0.05593899 208.8190999 0.06215792 230.98815596 0.06148756 C232.41437055 0.06144714 233.84058515 0.06140678 235.26679974 0.06136648 C235.97197314 0.06134613 236.67714654 0.06132577 237.40368882 0.06130481 C240.95511641 0.06120398 244.50654401 0.0611134 248.0579716 0.06103456 C248.75896524 0.06101785 249.45995889 0.06100113 250.18219477 0.06098391 C268.84300498 0.06061722 287.50381387 0.06517318 306.16462296 0.07136112 C306.82992867 0.0715814 307.49523437 0.07180167 308.18070086 0.07202861 C311.51941842 0.07313734 314.85813598 0.0742591 318.19685353 0.07539741 C327.40033306 0.07838989 336.60381166 0.07947407 345.80729163 0.07992971 C357.03982322 0.08061752 368.27234638 0.08516055 379.5048744 0.09426252 C385.21486795 0.09882301 390.92485084 0.10194773 396.63484633 0.10066831 C417.10563129 0.09713915 437.56662967 0.13539527 458.03065169 0.70899427 C458.76880647 0.72945449 459.50696125 0.74991471 460.26748436 0.77099494 C488.63944406 1.58212441 509.96712688 6.07552713 532.68957198 24.24679029 C533.70857588 25.03376295 533.70857588 25.03376295 534.74816573 25.83663404 C539.54075176 29.6899159 543.02938631 34.34094703 546.68957198 39.24679029 C547.32379073 39.9751106 547.95800948 40.70343091 548.61144698 41.45382154 C551.39003641 45.18820395 553.28734391 49.16454803 555.25207198 53.37179029 C555.84858565 54.64711622 555.84858565 54.64711622 556.4571501 55.94820631 C563.20111284 70.65784384 563.82338829 84.61994366 563.89489424 100.64620435 C563.9045044 102.05752389 563.91451065 103.46884077 563.92487586 104.88015497 C563.95177192 108.7053921 563.97289703 112.53064122 563.99286973 116.35591996 C564.01515864 120.44778306 564.04258615 124.53961245 564.06922591 128.6314491 C564.11968099 136.52786926 564.16473238 144.42431117 564.20747465 152.32077652 C564.24189346 158.67676944 564.278056 165.03275025 564.31524336 171.38872755 C564.57335803 215.68288749 564.79078991 259.97717573 564.81250823 304.27216566 C564.81456469 307.54768593 564.81831443 310.8232007 564.82241499 314.098719 C564.82820274 319.15953964 564.82848029 324.22032947 564.82395422 329.28115118 C564.82293053 331.08524466 564.82344337 332.88933987 564.8257128 334.69343221 C564.84998425 357.76555347 564.84998425 357.76555347 562.68957198 364.24679029 C560.42394698 364.93038404 560.42394698 364.93038404 557.68957198 365.24679029 C555.76769698 364.09444654 555.76769698 364.09444654 553.93957198 362.30929029 C553.24992354 361.65831373 552.5602751 361.00733716 551.84972823 360.33663404 C551.13687666 359.6469856 550.4240251 358.95733716 549.68957198 358.24679029 C548.25899567 356.94745952 546.82134681 355.65587722 545.37707198 354.37179029 C544.62297041 353.69889966 543.86886885 353.02600904 543.09191573 352.33272779 C540.58744178 350.15811139 538.02436346 348.07512771 535.43957198 345.99679029 C531.21674961 342.57017047 527.17189357 339.00821029 523.18957198 335.30929029 C522.6458293 334.80438062 522.10208663 334.29947095 521.5418669 333.77926099 C519.40216156 331.78694552 517.26634623 329.79068387 515.13927901 327.78487623 C513.68225469 326.41228291 512.21729874 325.04812416 510.75207198 323.68429029 C509.91804854 322.89925123 509.0840251 322.11421216 508.22472823 321.30538404 C502.59620326 316.73491769 497.29030771 315.15444373 490.18903697 315.04245985 C489.05832125 315.02271919 487.92760553 315.00297853 486.76262569 314.98263967 C485.51458837 314.96612041 484.26655105 314.94960115 482.98069441 314.93258131 C481.63385463 314.91194652 480.28701849 314.8910721 478.94018579 314.86998022 C475.19882272 314.81341528 471.45739527 314.76455474 467.7158943 314.71809304 C465.29236068 314.68787392 462.86884889 314.65621043 460.44533587 314.62438619 C414.65675297 314.03304894 368.86476373 314.13384344 323.07334984 314.17501324 C310.10509915 314.18635193 297.13684837 314.19069065 284.16859364 314.19455886 C277.46243345 314.19658354 270.75627337 314.19888822 264.05011332 314.20130384 C263.38000494 314.20154485 262.70989656 314.20178587 262.01948186 314.20203418 C246.23722866 314.20778646 230.45497758 314.21674522 214.67272627 314.22628248 C213.64300066 314.22690295 213.64300066 314.22690295 212.59247252 314.22753595 C202.84458076 314.23341333 193.09668909 314.23943352 183.34879744 314.24548829 C171.45416962 314.25287449 159.55954176 314.26017982 147.66491377 314.2672981 C146.97415376 314.26771269 146.28339375 314.26812728 145.57170162 314.26855443 C129.74394943 314.27803658 113.91619745 314.28657709 98.0884434 314.29227674 C97.42026869 314.29251773 96.75209398 314.29275873 96.06367155 314.29300702 C88.72727845 314.29563028 81.3908853 314.29801168 74.05449206 314.30020845 C59.88342157 314.30464324 45.71236183 314.31258422 31.54129636 314.32535326 C21.83525266 314.33386829 12.12921139 314.33868997 2.4231642 314.34077847 C-3.14204064 314.34210334 -8.70723158 314.34497692 -14.27243173 314.35253751 C-34.86333486 314.37927055 -55.45463367 314.34884032 -76.04278428 313.97671628 C-77.87005054 313.94502967 -79.69739736 313.91761883 -81.5247991 313.89506006 C-108.15214297 313.54823508 -130.75906509 306.19928265 -150.31042802 287.24679029 C-150.31042802 286.58679029 -150.31042802 285.92679029 -150.31042802 285.24679029 C-150.97042802 285.24679029 -151.63042802 285.24679029 -152.31042802 285.24679029 C-170.00557882 266.12726203 -176.48299103 242.4302595 -176.43982255 217.11226881 C-176.44157487 215.83434965 -176.44332719 214.55643049 -176.44513261 213.23978651 C-176.44965937 209.75986528 -176.447936 206.27997398 -176.44475353 202.80005229 C-176.44220029 199.1307625 -176.44457611 195.46147508 -176.44613969 191.79218519 C-176.44795486 185.62315897 -176.44557439 179.45414476 -176.44079912 173.28512037 C-176.43537952 166.20299168 -176.43710498 159.1208919 -176.44262552 152.03876394 C-176.44720146 145.91856827 -176.44778488 139.79838117 -176.44518685 133.67818433 C-176.44364568 130.04087223 -176.44336933 126.40357359 -176.44672334 122.76626241 C-176.46706321 96.8602847 -176.46706321 96.8602847 -175.93103349 85.39498365 C-175.90121448 84.68349699 -175.87139547 83.97201034 -175.84067285 83.23896348 C-174.79120802 64.74523573 -166.46058375 46.97488832 -154.31042802 33.24679029 C-153.45399987 32.16524388 -152.59951811 31.0821502 -151.74792802 29.99679029 C-137.84157441 14.30757083 -115.84185104 3.58229063 -95.05915677 2.08454838 C-92.4453002 1.94402758 -89.83145963 1.82751284 -87.21602857 1.72017419 C-85.73711972 1.65656797 -85.73711972 1.65656797 -84.22833393 1.59167678 C-80.97774351 1.45510416 -77.72693238 1.32610646 -74.47594011 1.19947278 C-73.34600267 1.155013 -72.21606523 1.11055321 -71.05188727 1.06474616 C-47.36387262 0.15109394 -23.70286696 -0.03686286 0 0 Z M-68.78696001 68.56737745 C-69.76655313 68.58935536 -70.74614626 68.61133327 -71.75542402 68.63397717 C-82.90340888 69.07048114 -91.27992541 72.74675949 -98.91589677 80.97725904 C-104.9418735 88.69969842 -104.60812114 97.69576616 -104.60095537 107.05343091 C-104.60767259 108.31946653 -104.61438982 109.58550214 -104.62131059 110.88990247 C-104.63887861 114.34235475 -104.6436619 117.79470771 -104.64494216 121.24720037 C-104.64636892 123.40819158 -104.65064828 125.56915794 -104.6559366 127.73014295 C-104.6744025 135.28014183 -104.68261105 142.83007036 -104.68103349 150.38009107 C-104.67983122 157.40116722 -104.70095888 164.4219364 -104.73252082 171.44293487 C-104.75871782 177.48734715 -104.76939944 183.53165931 -104.76812267 189.57612789 C-104.76761428 193.17913074 -104.77322956 196.78186011 -104.79447877 200.38480604 C-104.81753672 204.40346604 -104.8083195 208.42144155 -104.79626787 212.44014966 C-104.80750688 213.62376585 -104.81874589 214.80738203 -104.83032548 216.02686536 C-104.76098062 225.1336441 -102.69790176 231.45564721 -96.31042802 238.24679029 C-93.60651236 240.27162409 -93.60651236 240.27162409 -90.68542802 241.99679029 C-89.7237874 242.58975904 -88.76214677 243.18272779 -87.77136552 243.79366529 C-83.76946245 246.15669377 -80.65817943 246.55196492 -76.07883012 246.80288541 C-75.32609705 246.84505568 -74.57336397 246.88722594 -73.79782081 246.93067409 C-63.87467195 247.43299016 -53.94892564 247.37305207 -44.01599443 247.34926832 C-41.80096878 247.34771904 -39.5859428 247.34660936 -37.37091672 247.34589732 C-31.32684791 247.34264559 -25.28280389 247.33303825 -19.23874438 247.32229006 C-13.37682644 247.31284814 -7.5149058 247.30821268 -1.65298257 247.30333229 C14.02325956 247.28998842 29.69948096 247.26633207 45.37570836 247.24152624 C52.79530446 247.22986355 60.21490224 247.21953131 67.63450051 247.20936495 C93.05151007 247.17452059 118.46851524 247.13759849 143.88551009 247.09320676 C145.47774333 247.09043091 147.06997657 247.08765511 148.66220981 247.08487935 C150.25814954 247.0820951 151.85408928 247.07931058 153.45002902 247.07652581 C156.65145869 247.07093972 159.85288838 247.06535776 163.05431807 247.05977857 C164.24495048 247.05770039 164.24495048 247.05770039 165.45963608 247.05558023 C191.23157718 247.01068063 217.00351327 246.97811711 242.77548069 246.95293368 C270.05085672 246.92623661 297.32619656 246.88874279 324.60154021 246.83875906 C327.59444607 246.83331415 330.58735201 246.82791258 333.58025801 246.82254255 C334.31714621 246.82121517 335.0540344 246.81988778 335.81325254 246.81852018 C347.66870094 246.79741492 359.52413929 246.78610515 371.37960304 246.77829025 C383.28664047 246.77018949 395.1936205 246.75103004 407.10062224 246.72063783 C413.55032575 246.70461677 419.99994231 246.6934496 426.44966757 246.69524038 C432.35238976 246.69676285 438.25491736 246.68454686 444.15759265 246.66134205 C446.29383064 246.65537 448.43008993 246.65445164 450.56633127 246.65907344 C453.4692301 246.66461141 456.37149557 246.65175534 459.27433455 246.63434446 C460.10415683 246.64033531 460.93397911 246.64632615 461.78894752 246.65249854 C468.74509201 246.57756908 474.85898415 245.13384884 480.68957198 241.24679029 C480.68957198 240.58679029 480.68957198 239.92679029 480.68957198 239.24679029 C481.28769698 238.97866529 481.88582198 238.71054029 482.50207198 238.43429029 C484.68805051 237.24761623 486.10289792 236.15079916 487.68957198 234.24679029 C487.68957198 233.58679029 487.68957198 232.92679029 487.68957198 232.24679029 C488.34957198 232.24679029 489.00957198 232.24679029 489.68957198 232.24679029 C495.4316332 220.76266784 491.85403876 199.83388007 491.85754073 187.41085279 C491.85896758 186.07652617 491.86056425 184.74219973 491.86232626 183.40787351 C491.87152312 176.4337646 491.87566737 169.4596746 491.87487471 162.48555982 C491.87427199 156.0148792 491.88487642 149.5442814 491.90061837 143.07362175 C491.9137255 137.48426131 491.91905744 131.89492792 491.9184193 126.30555224 C491.91816571 122.98159553 491.92187748 119.65772924 491.93159735 116.33378446 C491.94141755 112.63235299 491.93851218 108.93113551 491.9324919 105.22970045 C491.94092116 103.60240003 491.94092116 103.60240003 491.94952071 101.94222486 C491.9157635 93.75563721 491.6167252 85.5553728 486.36925948 78.87960279 C478.54480221 71.27350247 469.09358528 69.02211505 458.58019888 68.62972677 C457.70787562 68.59210562 456.83555236 68.55448448 455.93679506 68.5157233 C446.10572336 68.12662469 436.27676553 68.10762919 426.43954146 68.11980665 C424.3742851 68.11865132 422.30902895 68.11706105 420.24377322 68.1150794 C414.62696206 68.11094236 409.0101681 68.11295109 403.39335692 68.11606562 C397.31271691 68.11834272 391.2320797 68.11482862 385.15144026 68.1120857 C373.94631184 68.1079087 362.74118886 68.1082528 351.53606056 68.11099717 C341.17778755 68.11352136 330.81951653 68.11416543 320.46124327 68.11297452 C319.77183157 68.11289814 319.08241987 68.11282175 318.37211691 68.11274305 C315.57289484 68.11243167 312.77367277 68.11211326 309.97445071 68.11178329 C283.75520463 68.10872951 257.535962 68.11148908 231.31671646 68.11688019 C208.0786951 68.12162202 184.84067922 68.12120322 161.60265791 68.1164192 C135.43776331 68.1110505 109.27287175 68.10894932 83.10797668 68.11203146 C80.31224954 68.11235213 77.51652241 68.11266497 74.72079527 68.11297452 C73.6883822 68.11309314 73.6883822 68.11309314 72.63511229 68.11321415 C62.29354254 68.11434615 51.951975 68.11303156 41.61040556 68.11049497 C29.83336132 68.10762052 18.05632229 68.10847755 6.27927844 68.11377572 C0.28112547 68.11638602 -5.71701644 68.11746365 -11.71516931 68.11412656 C-40.25428768 68.05008344 -40.25428768 68.05008344 -68.78696001 68.56737745 Z " fill="#000000" transform="translate(178.31042802333832,0.7532097101211548)"/>
</svg>
